# xmcd CD database file
#
# Track frame offsets:
#	150
#	15896
#	32179
#	49785
#	68527
#	85794
#	100468
#	113365
#	126638
#	142447
#
# Disc length: 2074 seconds
#
# Revision: 0
# Processed by: cddbd v1.5.2PL0 Copyright (c) Steve Scherf et al.
# Submitted via: CDex 1.51
#
DISCID=8408180a
DTITLE=Stefan Banica - Un craciun cu Stefan Banica
DYEAR=2009
DGENRE=Blues
TTITLE0=Ho, Ho, Ho
TTITLE1=O, brad frumos
TTITLE2=I'll Be Home For Christmas
TTITLE3=Doar o data-i Craciunul
TTITLE4=Reach Out To Jesus
TTITLE5=O, ce veste minunata 
TTITLE6=Adeste Fideles
TTITLE7=Silver Bells
TTITLE8=Doar un Craciun cu tine
TTITLE9=Joy To The World/Merry Christmas Everyone
EXTD=YEAR: 2009
EXTT0=
EXTT1=
EXTT2=
EXTT3=
EXTT4=
EXTT5=
EXTT6=
EXTT7=
EXTT8=
EXTT9=
PLAYORDER=
